<?xml version="1.0" encoding="UTF-8" standalone="no"?>
<!-- Created with Inkscape (http://www.inkscape.org/) -->

<svg
   width="800mm"
   height="800mm"
   viewBox="0 0 800 799.99999"
   version="1.1"
   id="svg1"
   xml:space="preserve"
   xmlns:xlink="http://www.w3.org/1999/xlink"
   xmlns="http://www.w3.org/2000/svg"
   xmlns:svg="http://www.w3.org/2000/svg"><defs
     id="defs1"><linearGradient
       id="linearGradient31"><stop
         style="stop-color:#1d3557;stop-opacity:1;"
         offset="0"
         id="stop30" /><stop
         style="stop-color:#457b9d;stop-opacity:1;"
         offset="1"
         id="stop31" /></linearGradient><linearGradient
       id="linearGradient27"><stop
         style="stop-color:#1d3557;stop-opacity:1;"
         offset="0.49673206"
         id="stop27" /><stop
         style="stop-color:#457b9d;stop-opacity:1;"
         offset="1"
         id="stop28" /></linearGradient><linearGradient
       id="linearGradient24"><stop
         style="stop-color:#1d3557;stop-opacity:1;"
         offset="0.503268"
         id="stop24" /><stop
         style="stop-color:#457b9d;stop-opacity:1;"
         offset="1"
         id="stop25" /></linearGradient><linearGradient
       id="linearGradient5"><stop
         style="stop-color:#21626f;stop-opacity:1;"
         offset="0"
         id="stop5" /><stop
         style="stop-color:#67ca5d;stop-opacity:1;"
         offset="1"
         id="stop6" /></linearGradient><linearGradient
       xlink:href="#linearGradient24"
       id="linearGradient25"
       x1="539.27234"
       y1="600.63928"
       x2="665.52649"
       y2="726.89343"
       gradientUnits="userSpaceOnUse"
       gradientTransform="translate(-1021.2917,-79.375)" /><linearGradient
       xlink:href="#linearGradient27"
       id="linearGradient28"
       x1="324.99969"
       y1="597.98663"
       x2="515.0882"
       y2="707.73431"
       gradientUnits="userSpaceOnUse"
       gradientTransform="translate(-1021.2917,-79.375)" /><linearGradient
       xlink:href="#linearGradient31"
       id="linearGradient29"
       gradientUnits="userSpaceOnUse"
       x1="13.986303"
       y1="143.48366"
       x2="159.9407"
       y2="143.48366"
       gradientTransform="translate(16.850005,276.73323)" /><linearGradient
       xlink:href="#linearGradient5"
       id="linearGradient30"
       gradientUnits="userSpaceOnUse"
       x1="13.986303"
       y1="143.48366"
       x2="159.9407"
       y2="143.48366"
       gradientTransform="translate(16.850005,276.73323)" /><linearGradient
       xlink:href="#linearGradient31"
       id="linearGradient218"
       gradientUnits="userSpaceOnUse"
       gradientTransform="translate(16.850005,276.73323)"
       x1="13.986303"
       y1="143.48366"
       x2="159.9407"
       y2="143.48366" /><linearGradient
       xlink:href="#linearGradient5"
       id="linearGradient220"
       gradientUnits="userSpaceOnUse"
       gradientTransform="translate(16.850005,276.73323)"
       x1="13.986303"
       y1="143.48366"
       x2="159.9407"
       y2="143.48366" /><linearGradient
       xlink:href="#linearGradient31"
       id="linearGradient330"
       gradientUnits="userSpaceOnUse"
       gradientTransform="translate(16.850005,276.73323)"
       x1="13.986303"
       y1="143.48366"
       x2="159.9407"
       y2="143.48366" /><linearGradient
       xlink:href="#linearGradient5"
       id="linearGradient332"
       gradientUnits="userSpaceOnUse"
       gradientTransform="translate(16.850005,276.73323)"
       x1="13.986303"
       y1="143.48366"
       x2="159.9407"
       y2="143.48366" /></defs><g
     id="layer1"
     transform="translate(147.96842,30.211197)"><g
       id="g328"
       transform="translate(-20.545515,37.646913)"><g
         id="g312"><g
           id="g297"><g
             id="g283"><g
               id="g270"><g
                 id="g258"><g
                   id="g247"><g
                     id="g237"><g
                       id="g228"><g
                         id="g216"
                         transform="translate(168.3798,132.83296)"><text
                           xml:space="preserve"
                           style="font-style:normal;font-variant:normal;font-weight:bold;font-stretch:normal;font-size:70.5556px;line-height:1.8;font-family:Montserrat;-inkscape-font-specification:'Montserrat, Bold';font-variant-ligatures:normal;font-variant-caps:normal;font-variant-numeric:normal;font-variant-east-asian:normal;text-align:center;writing-mode:lr-tb;direction:ltr;text-anchor:middle;fill:url(#linearGradient330);fill-opacity:1;stroke:url(#linearGradient332);stroke-width:0;stroke-linecap:round;stroke-linejoin:round;stroke-opacity:1"
                           x="103.52703"
                           y="427.91183"
                           id="text1-9"><tspan
                             id="tspan1-6"
                             style="font-style:normal;font-variant:normal;font-weight:bold;font-stretch:normal;font-size:70.5556px;font-family:Montserrat;-inkscape-font-specification:'Montserrat, Bold';font-variant-ligatures:normal;font-variant-caps:normal;font-variant-numeric:normal;font-variant-east-asian:normal;fill:url(#linearGradient330);fill-opacity:1;stroke:url(#linearGradient332);stroke-width:0;stroke-opacity:1"
                             x="103.52704"
                             y="427.91183">MindMotion.ai</tspan></text><g
                           id="g36"
                           transform="translate(624.87615,-422.82039)"><path
                             id="path13-5-1"
                             style="fill:url(#linearGradient25);fill-opacity:1;stroke-width:9.68931;stroke-linecap:round;stroke-linejoin:round"
                             d="m -463.90148,412.27114 -16.3716,32.91789 a 141.11467,141.11467 0 0 0 -21.37902,-1.64383 141.11467,141.11467 0 0 0 -6.51536,0.49972 v 44.10841 a 97.076401,97.076401 0 0 1 6.51536,-0.56999 97.076401,97.076401 0 0 1 2.76417,0.0837 97.076401,97.076401 0 0 1 14.87972,1.53737 97.076401,97.076401 0 0 1 3.35743,0.72037 97.076401,97.076401 0 0 1 14.8637,4.56407 97.076401,97.076401 0 0 1 2.5528,1.05729 97.076401,97.076401 0 0 1 14.5547,7.81607 97.076401,97.076401 0 0 1 1.4619,0.94516 97.076401,97.076401 0 0 1 13.9113,11.42824 97.076401,97.076401 0 0 1 0.4454,0.43718 v 5.2e-4 a 97.076401,97.076401 0 0 1 28.1156,68.31004 97.076401,97.076401 0 0 1 -10e-4,0.0145 l 0.1654,-0.0822 a 97.076401,97.076401 0 0 1 0.0103,0.24443 97.076401,97.076401 0 0 1 -0.0181,0.20877 l -0.1747,-0.0868 a 97.076401,97.076401 0 0 1 -7.3954,36.79776 97.076401,97.076401 0 0 1 -0.2692,0.57722 97.076401,97.076401 0 0 1 -8.432,15.73082 97.076401,97.076401 0 0 1 -0.9349,1.33481 97.076401,97.076401 0 0 1 -10.791,13.14028 97.076401,97.076401 0 0 1 -0.6336,0.63355 l -0.1049,-0.0351 0.0351,0.10491 a 97.076401,97.076401 0 0 1 -0.6371,0.63768 97.076401,97.076401 0 0 1 -13.1465,10.80038 97.076401,97.076401 0 0 1 -1.3178,0.92242 97.076401,97.076401 0 0 1 -15.7701,8.45737 97.076401,97.076401 0 0 1 -0.5276,0.24598 97.076401,97.076401 0 0 1 -36.81066,7.40678 l 0.0889,0.1788 a 97.076401,97.076401 0 0 1 -0.2372,0.0207 97.076401,97.076401 0 0 1 -0.20877,-0.0181 l 0.0801,-0.16174 a 97.076401,97.076401 0 0 1 -0.0434,0.003 97.076401,97.076401 0 0 1 -6.34793,-0.6444 v 44.34044 a 141.11467,141.11467 0 0 0 6.51536,0.51935 141.11467,141.11467 0 0 0 21.27982,-1.69705 l 16.1107,32.43367 a 176.5242,176.5242 0 0 0 57.7179,-23.7572 l -11.6608,-34.7369 a 141.11467,141.11467 0 0 0 29.9114,-29.91239 l 34.4867,11.5962 a 176.5242,176.5242 0 0 0 24.1893,-57.54223 l -32.6167,-16.22175 a 141.11467,141.11467 0 0 0 1.6966,-21.27673 141.11467,141.11467 0 0 0 -1.633,-21.31188 l 32.4497,-16.1184 a 176.5242,176.5242 0 0 0 -23.6197,-57.75151 l -34.615,11.61996 a 141.11467,141.11467 0 0 0 -30.1377,-30.13666 l 11.5936,-34.48058 a 176.5242,176.5242 0 0 0 -57.4022,-24.2099 z" /><path
                             id="path13-5-6-8-7-6"
                             style="fill:url(#linearGradient28);stroke:none;stroke-width:3.87179;stroke-linecap:round;stroke-linejoin:round;stroke-opacity:1"
                             d="m -531.8647,392.61583 c -1.64483,0.0209 -3.18535,0.0911 -4.51342,0.21032 -5.79838,0.52045 -11.76695,1.69906 -17.69246,3.49436 -5.40467,1.6375 -13.86962,5.21665 -18.8097,7.953 -17.66579,9.78519 -30.09039,24.02113 -33.0848,37.7393 -1.01875,4.66721 -4.48176,8.85448 -9.21649,9.60717 -40.22799,6.39516 -70.23975,37.35074 -70.34558,74.13811 0.0111,5.22518 0.63656,10.42921 1.86242,15.52928 0.85026,3.53743 -0.50866,8.10904 -3.19929,10.55853 -15.40218,14.02182 -24.11909,32.83927 -24.13134,52.52548 0.0795,29.74952 19.899,56.43766 50.13854,68.57101 4.14911,1.6648 6.01482,5.96168 4.83691,10.27017 -1.64824,6.0289 -1.74305,17.38819 0.46354,24.45277 8.34947,26.73155 41.43208,46.69633 80.97232,46.69638 43.14929,-0.0626 79.03638,-23.98858 82.56188,-55.04419 h 0.49506 V 421.27093 c 0.036,-0.80869 0.036,-1.60921 0,-2.40037 v -2.82102 h -0.30799 c -0.3002,-1.85431 -0.80952,-3.63983 -1.52342,-5.34179 -3.5972,-8.5202 -12.1333,-14.50124 -23.78304,-16.95142 -3.91307,-0.823 -9.78868,-1.20309 -14.72314,-1.1405 z m -1.83503,18.94148 c 0.98822,0 2.00686,0.0413 3.0577,0.12712 12.74071,1.6468 20.34903,16.08056 22.22913,27.83241 0.60216,0.0873 0.24547,1.87366 0.24547,2.44636 0.0286,0.68607 0.0286,1.38027 0,2.08153 v 111.54616 l -38.52892,-36.13578 c 0.017,-0.24816 0.032,-0.49734 0.032,-0.75085 v -26.40769 a 17.695757,18.072262 0 0 0 10.64018,-16.55145 17.695757,18.072262 0 0 0 -17.69556,-18.07228 17.695757,18.072262 0 0 0 -17.69608,18.07228 17.695757,18.072262 0 0 0 9.33018,15.87293 v 27.08621 c 0,1.58919 0.34123,3.08014 0.94051,4.37854 0.0112,2.42736 1.1096,5.00414 3.21789,6.98149 l 49.4068,46.33825 c 0.11464,0.10752 0.23528,0.20251 0.35296,0.30386 v 37.40495 l -78.39522,-83.64657 a 17.695757,18.072262 0 0 0 1.08159,-6.09059 17.695757,18.072262 0 0 0 -17.69556,-18.07228 17.695757,18.072262 0 0 0 -17.69556,18.07228 17.695757,18.072262 0 0 0 17.69556,18.07229 17.695757,18.072262 0 0 0 5.42447,-0.89969 l 87.59879,93.46716 c 0.60681,0.64746 1.2846,1.1627 1.98593,1.61541 v 48.52934 h -0.39481 c -1.40677,13.46522 -4.6397,28.031 -16.45533,36.59104 -11.81563,8.56007 -32.21402,14.38856 -49.43109,14.41566 -18.29196,-2e-5 -34.38462,-5.81784 -46.37185,-15.22439 -5.99361,-4.70329 -11.31122,-13.57795 -14.66318,-19.79673 -3.35194,-6.21882 -0.45223,-10.21581 -0.45217,-17.39273 0.0475,-5.54388 -3.53516,-13.3042 -6.52312,-18.1684 -3.82833,-6.23225 -7.94359,-6.49006 -13.55111,-10.52753 -5.60753,-4.03747 -15.18112,-9.32814 -19.2195,-14.74018 -8.07679,-10.82409 -15.9951,-11.3747 -16.02951,-32.81402 0.005,-16.91137 10.08067,-23.30307 14.05185,-31.69781 3.97116,-8.39474 8.06928,-13.27096 11.9879,-22.16609 2.59574,-5.89222 -0.5579,-13.0304 -0.57051,-19.45204 0.0226,-8.53567 0.81817,-17.17707 3.02153,-25.14523 2.20338,-7.96815 5.81446,-15.26323 11.46751,-21.10621 5.65301,-5.84298 18.96075,-8.36308 26.52603,-11.9264 7.56528,-3.56331 12.65882,-3.69559 20.51038,-7.94784 3.45993,-1.87382 11.27202,-11.37253 12.75994,-15.48639 1.4879,-4.11384 3.81647,-8.21366 6.84971,-12.12278 6.06653,-7.81825 12.26447,-16.75539 22.87148,-21.64002 9.18642,-4.66937 13.26028,-7.25329 28.08355,-7.2533 z m -75.62846,172.10215 a 17.695757,18.072262 0 0 0 -17.69556,18.07229 17.695757,18.072262 0 0 0 17.69556,18.07228 17.695757,18.072262 0 0 0 7.60936,-1.77715 l 30.59245,33.68373 v 41.50496 c 0,5.05279 3.43894,9.12089 7.71064,9.12089 4.2717,0 7.71064,-4.0681 7.71064,-9.12089 v -44.35078 c 0,-3.866 -2.01611,-7.14766 -4.87516,-8.47959 l -31.52417,-34.71106 a 17.695757,18.072262 0 0 0 0.47181,-3.94239 17.695757,18.072262 0 0 0 -17.69557,-18.07229 z" /></g></g></g></g></g></g></g></g></g></g></g></g></svg>
